<svg width="60" height="35" viewBox="0 0 60 35" fill="none" xmlns="http://www.w3.org/2000/svg">
<path d="M35.3809 26.848L28.3249 34H23.6689L18.1969 28.432L12.7729 34H8.06894L1.01294 26.848V0.831998H5.76494V25.504L10.0849 29.968H11.3809L15.7969 25.504V0.831998H20.5489V25.504L24.9649 29.968H26.3089L30.6289 25.648V0.831998H35.3809V26.848Z" fill="#00A3FF"/>
<path d="M58.5293 5.008H51.0893V34H46.3373V5.008H38.9453V0.831998H58.5293V5.008Z" fill="#FF8E25"/>
<path d="M35.3809 26.848L35.8081 27.2694L35.9809 27.0942V26.848H35.3809ZM28.3249 34V34.6H28.5758L28.7521 34.4214L28.3249 34ZM23.6689 34L23.241 34.4206L23.4173 34.6H23.6689V34ZM18.1969 28.432L18.6249 28.0114L18.195 27.5741L17.7672 28.0133L18.1969 28.432ZM12.7729 34V34.6H13.0261L13.2027 34.4187L12.7729 34ZM8.06894 34L7.64182 34.4214L7.81803 34.6H8.06894V34ZM1.01294 26.848H0.412938V27.0942L0.585817 27.2694L1.01294 26.848ZM1.01294 0.831998V0.231998H0.412938V0.831998H1.01294ZM5.76494 0.831998H6.36494V0.231998H5.76494V0.831998ZM5.76494 25.504H5.16494V25.7468L5.33378 25.9213L5.76494 25.504ZM10.0849 29.968L9.65378 30.3853L9.83063 30.568H10.0849V29.968ZM11.3809 29.968V30.568H11.6314L11.8075 30.39L11.3809 29.968ZM15.7969 25.504L16.2235 25.926L16.3969 25.7506V25.504H15.7969ZM15.7969 0.831998V0.231998H15.1969V0.831998H15.7969ZM20.5489 0.831998H21.1489V0.231998H20.5489V0.831998ZM20.5489 25.504H19.9489V25.7506L20.1224 25.926L20.5489 25.504ZM24.9649 29.968L24.5384 30.39L24.7145 30.568H24.9649V29.968ZM26.3089 29.968V30.568H26.5575L26.7332 30.3923L26.3089 29.968ZM30.6289 25.648L31.0532 26.0723L31.2289 25.8965V25.648H30.6289ZM30.6289 0.831998V0.231998H30.0289V0.831998H30.6289ZM35.3809 0.831998H35.9809V0.231998H35.3809V0.831998ZM34.9538 26.4266L27.8978 33.5786L28.7521 34.4214L35.8081 27.2694L34.9538 26.4266ZM28.3249 33.4H23.6689V34.6H28.3249V33.4ZM24.0969 33.5794L18.6249 28.0114L17.769 28.8526L23.241 34.4206L24.0969 33.5794ZM17.7672 28.0133L12.3432 33.5813L13.2027 34.4187L18.6267 28.8507L17.7672 28.0133ZM12.7729 33.4H8.06894V34.6H12.7729V33.4ZM8.49606 33.5786L1.44006 26.4266L0.585817 27.2694L7.64182 34.4214L8.49606 33.5786ZM1.61294 26.848V0.831998H0.412938V26.848H1.61294ZM1.01294 1.432H5.76494V0.231998H1.01294V1.432ZM5.16494 0.831998V25.504H6.36494V0.831998H5.16494ZM5.33378 25.9213L9.65378 30.3853L10.5161 29.5507L6.1961 25.0867L5.33378 25.9213ZM10.0849 30.568H11.3809V29.368H10.0849V30.568ZM11.8075 30.39L16.2235 25.926L15.3704 25.082L10.9544 29.546L11.8075 30.39ZM16.3969 25.504V0.831998H15.1969V25.504H16.3969ZM15.7969 1.432H20.5489V0.231998H15.7969V1.432ZM19.9489 0.831998V25.504H21.1489V0.831998H19.9489ZM20.1224 25.926L24.5384 30.39L25.3915 29.546L20.9755 25.082L20.1224 25.926ZM24.9649 30.568H26.3089V29.368H24.9649V30.568ZM26.7332 30.3923L31.0532 26.0723L30.2047 25.2237L25.8847 29.5437L26.7332 30.3923ZM31.2289 25.648V0.831998H30.0289V25.648H31.2289ZM30.6289 1.432H35.3809V0.231998H30.6289V1.432ZM34.7809 0.831998V26.848H35.9809V0.831998H34.7809ZM58.5293 5.008V5.608H59.1293V5.008H58.5293ZM51.0893 5.008V4.408H50.4893V5.008H51.0893ZM51.0893 34V34.6H51.6893V34H51.0893ZM46.3373 34H45.7373V34.6H46.3373V34ZM46.3373 5.008H46.9373V4.408H46.3373V5.008ZM38.9453 5.008H38.3453V5.608H38.9453V5.008ZM38.9453 0.831998V0.231998H38.3453V0.831998H38.9453ZM58.5293 0.831998H59.1293V0.231998H58.5293V0.831998ZM58.5293 4.408H51.0893V5.608H58.5293V4.408ZM50.4893 5.008V34H51.6893V5.008H50.4893ZM51.0893 33.4H46.3373V34.6H51.0893V33.4ZM46.9373 34V5.008H45.7373V34H46.9373ZM46.3373 4.408H38.9453V5.608H46.3373V4.408ZM39.5453 5.008V0.831998H38.3453V5.008H39.5453ZM38.9453 1.432H58.5293V0.231998H38.9453V1.432ZM57.9293 0.831998V5.008H59.1293V0.831998H57.9293Z" fill="#3E3E3E" fill-opacity="0.63"/>
</svg>
