<svg width="89" height="38" viewBox="0 0 89 38" fill="none" xmlns="http://www.w3.org/2000/svg">
<path d="M40.798 11.02L37.858 14H35.918L33.638 11.68L31.378 14H29.418L26.478 11.02V0.179999H28.458V10.46L30.258 12.32H30.798L32.638 10.46V0.179999H34.618V10.46L36.458 12.32H37.018L38.818 10.52V0.179999H40.798V11.02Z" fill="#055E91"/>
<path d="M50.9632 14H45.5432L43.8232 12.26V5.36L45.5432 3.62H49.2432L50.9632 5.36V8.82L49.2432 10.54H46.0432L47.8032 8.82H49.0032V5.36H45.8032V12.26H50.9632V14Z" fill="#4311D3"/>
<path d="M62.6493 12.26L60.9093 14H54.0093V3.62L55.7493 1.92H53.7693V0.179999H59.4293L61.1693 1.92V4.38L59.9493 5.6H61.1693L62.6493 7.08V12.26ZM59.1893 5.6V1.92H55.9893V7.08L57.4493 5.6H59.1893ZM60.6693 12.26V7.08H55.9893V12.26H60.6693Z" fill="#D31111"/>
<path d="M8.48031 25.92H5.38031V38H3.40031V25.92H0.320312V24.18H8.48031V25.92Z" fill="#FF8E25"/>
<path d="M17.3644 38H10.4644V27.62L12.2044 25.92H10.2244V24.18H17.3644V25.92H12.4444V30.84L13.9044 29.36H17.3644V31.08H12.4444V36.26H17.3644V38Z" fill="#FF2E00"/>
<path d="M28.9677 38H26.9877L27.0277 36.6L23.0677 32.62L24.4077 31.08H26.9877V25.92H22.3077V38H20.3277V27.62L22.0677 25.92H20.0877V24.18H27.2277L28.9677 25.92V30.84L27.2277 32.58H25.6077V32.84L28.9677 36.16V38Z" fill="#14FF00"/>
<path d="M43.758 37.98H41.778V27.16L43.018 25.94H41.398L38.738 31.08H37.298L34.738 25.94H33.138L34.378 27.16V37.98H32.398V24.18H35.938L37.998 28.72H38.238L40.338 24.18H43.758V37.98Z" fill="#001AFF"/>
<path d="M49.6905 38H47.7105V24.18H49.6905V38Z" fill="#FFC700"/>
<path d="M63.268 37.98H59.448L56.088 25.94H54.388L55.628 27.12V37.98H53.648V24.16H57.488L60.808 36.24H62.528L61.288 34.98V24.16H63.268V37.98Z" fill="#EDFF7D"/>
<path d="M75.7222 38H73.7622V32.82H69.0622V38H67.0822V25.92L68.8222 24.18H75.7222V38ZM75.0022 25.92H69.0622V32.58L70.5622 31.08H73.7622V27.16L75.0022 25.92Z" fill="#C200C6"/>
<path d="M88.0831 38H79.6831V24.18H81.6631V36.26H86.1031V34.54L88.0831 32.58V38Z" fill="#00FFD1"/>
</svg>
